<svg viewBox="0 0 25 25" fill="none" xmlns="http://www.w3.org/2000/svg">
<path d="M4.33337 18.5H6.33337V22.581L11.4344 18.5H16.3334C17.4364 18.5 18.3334 17.603 18.3334 16.5V8.5C18.3334 7.397 17.4364 6.5 16.3334 6.5H4.33337C3.23037 6.5 2.33337 7.397 2.33337 8.5V16.5C2.33337 17.603 3.23037 18.5 4.33337 18.5Z"/>
<path d="M20.3334 2.5H8.33337C7.23037 2.5 6.33337 3.397 6.33337 4.5H18.3334C19.4364 4.5 20.3334 5.397 20.3334 6.5V14.5C21.4364 14.5 22.3334 13.603 22.3334 12.5V4.5C22.3334 3.397 21.4364 2.5 20.3334 2.5Z"/>
</svg>
