<svg width="27" height="27" viewBox="0 0 27 27" fill="none" xmlns="http://www.w3.org/2000/svg">
<g clip-path="url(#clip0_1760_6231)">
<mask id="mask0_1760_6231" style="mask-type:luminance" maskUnits="userSpaceOnUse" x="0" y="0" width="27" height="27">
<path d="M27 0H0V27H27V0Z" fill="white"/>
</mask>
<g mask="url(#mask0_1760_6231)">
<path d="M26.46 13.8063C26.46 12.8491 26.3741 11.9286 26.2146 11.0449H13.5V16.2669H20.7654C20.4525 17.9544 19.5014 19.3842 18.0716 20.3415V23.7288H22.4346C24.9873 21.3786 26.46 17.9176 26.46 13.8063Z" fill="#4285F4"/>
<path d="M13.5 26.9995C17.145 26.9995 20.2009 25.7905 22.4344 23.7288L18.0715 20.3415C16.8627 21.1515 15.3163 21.6301 13.5 21.6301C9.98378 21.6301 7.00771 19.2553 5.94607 16.0645H1.43585V19.5622C3.65728 23.9742 8.22271 26.9995 13.5 26.9995Z" fill="#34A853"/>
<path d="M5.94607 16.0652C5.67607 15.2552 5.52272 14.39 5.52272 13.5002C5.52272 12.6104 5.67607 11.7452 5.94607 10.9352V7.4375H1.43586C0.52164 9.26 0 11.3219 0 13.5002C0 15.6786 0.52164 17.7405 1.43586 19.563L5.94607 16.0652Z" fill="#FBBC04"/>
<path d="M13.5 5.36936C15.4819 5.36936 17.2615 6.05043 18.6606 7.38815L22.5327 3.51608C20.1948 1.33772 17.1388 0 13.5 0C8.22271 0 3.65728 3.02522 1.43585 7.43728L5.94607 10.935C7.00771 7.74414 9.98378 5.36936 13.5 5.36936Z" fill="#E94235"/>
</g>
</g>
<defs>
<clipPath id="clip0_1760_6231">
<rect width="27" height="27" fill="white"/>
</clipPath>
</defs>
</svg>
