<svg viewBox="0 0 24 25" fill="none" xmlns="http://www.w3.org/2000/svg">
<path d="M12.4333 2.66004C12.3126 2.55676 12.1589 2.5 12 2.5C11.8411 2.5 11.6874 2.55676 11.5667 2.66004L2 10.86V20.5C2 21.0304 2.21071 21.5391 2.58579 21.9142C2.96086 22.2893 3.46957 22.5 4 22.5H9.33333C9.51014 22.5 9.67971 22.4298 9.80474 22.3047C9.92976 22.1797 10 22.0101 10 21.8333V17.8333C10 17.3029 10.2107 16.7942 10.5858 16.4191C10.9609 16.0441 11.4696 15.8333 12 15.8333C12.5304 15.8333 13.0391 16.0441 13.4142 16.4191C13.7893 16.7942 14 17.3029 14 17.8333V21.8333C14 22.0101 14.0702 22.1797 14.1953 22.3047C14.3203 22.4298 14.4899 22.5 14.6667 22.5H20C20.5304 22.5 21.0391 22.2893 21.4142 21.9142C21.7893 21.5391 22 21.0304 22 20.5V10.86L12.4333 2.66004Z"/>
</svg>
