<svg viewBox="0 0 32 32" fill="none" xmlns="http://www.w3.org/2000/svg">
<path d="M7.33337 26H12.3334V18.6667C12.3334 18.3833 12.4292 18.1458 12.6209 17.9542C12.8125 17.7625 13.05 17.6667 13.3334 17.6667H18.6667C18.95 17.6667 19.1875 17.7625 19.3792 17.9542C19.5709 18.1458 19.6667 18.3833 19.6667 18.6667V26H24.6667V13L16 6.5L7.33337 13V26ZM5.33337 26V13C5.33337 12.6833 5.40421 12.3833 5.54587 12.1C5.68754 11.8167 5.88337 11.5833 6.13337 11.4L14.8 4.9C15.1485 4.63333 15.5467 4.5 15.9947 4.5C16.4427 4.5 16.8445 4.63333 17.2 4.9L25.8667 11.4C26.1167 11.5833 26.3125 11.8167 26.4542 12.1C26.5959 12.3833 26.6667 12.6833 26.6667 13V26C26.6667 26.55 26.4709 27.0208 26.0792 27.4125C25.6875 27.8042 25.2167 28 24.6667 28H18.6667C18.3834 28 18.1459 27.9042 17.9542 27.7125C17.7625 27.5208 17.6667 27.2833 17.6667 27V19.6667H14.3334V27C14.3334 27.2833 14.2375 27.5208 14.0459 27.7125C13.8542 27.9042 13.6167 28 13.3334 28H7.33337C6.78337 28 6.31254 27.8042 5.92087 27.4125C5.52921 27.0208 5.33337 26.55 5.33337 26Z"/>
</svg>
