<svg viewBox="0 0 32 32" fill="none" xmlns="http://www.w3.org/2000/svg">
<path d="M23.0333 29.3333C21.2903 29.3333 19.8046 28.7191 18.5761 27.4905C17.3476 26.2621 16.7333 24.7763 16.7333 23.0333C16.7333 21.2903 17.3476 19.8046 18.5761 18.5761C19.8046 17.3476 21.2903 16.7333 23.0333 16.7333C24.7763 16.7333 26.2621 17.3476 27.4906 18.5761C28.7191 19.8046 29.3333 21.2903 29.3333 23.0333C29.3333 24.7763 28.7191 26.2621 27.4906 27.4905C26.2621 28.7191 24.7763 29.3333 23.0333 29.3333ZM23.4 22.9666V19.8693C23.4 19.6898 23.3367 19.5389 23.21 19.4166C23.0833 19.2944 22.9356 19.2333 22.7667 19.2333C22.5889 19.2333 22.4333 19.3 22.3 19.4333C22.1667 19.5666 22.1 19.7222 22.1 19.9V23.0333C22.1 23.157 22.1222 23.2768 22.1667 23.3927C22.2111 23.5087 22.2778 23.6222 22.3667 23.7333L24.5 25.9333C24.6333 26.0666 24.7889 26.1333 24.9667 26.1333C25.1444 26.1333 25.3 26.0666 25.4333 25.9333C25.5667 25.8 25.6333 25.6444 25.6333 25.4666C25.6333 25.2889 25.5667 25.1333 25.4333 25L23.4 22.9666ZM6 28C5.45 28 4.97917 27.8041 4.5875 27.4125C4.19583 27.0208 4 26.55 4 26V5.99998C4 5.4222 4.18889 4.94442 4.56667 4.56665C4.94444 4.18887 5.42222 3.99998 6 3.99998H12.7333C12.8889 3.2222 13.2722 2.58331 13.8833 2.08331C14.4944 1.58331 15.2 1.33331 16 1.33331C16.8 1.33331 17.5056 1.58331 18.1167 2.08331C18.7278 2.58331 19.1111 3.2222 19.2667 3.99998H26C26.5778 3.99998 27.0556 4.18887 27.4333 4.56665C27.8111 4.94442 28 5.4222 28 5.99998V16.2666C27.6667 16.0666 27.3387 15.8946 27.0161 15.7506C26.6936 15.6066 26.3548 15.4786 26 15.3666V5.99998H24V7.99998C24 8.28331 23.9042 8.52081 23.7125 8.71248C23.5208 8.90415 23.2833 8.99998 23 8.99998H9C8.71667 8.99998 8.47917 8.90415 8.2875 8.71248C8.09583 8.52081 8 8.28331 8 7.99998V5.99998H6V26H15.3333C15.4444 26.3333 15.5778 26.6611 15.7333 26.9833C15.8889 27.3055 16.0778 27.6444 16.3 28H6ZM16 5.99998C16.3778 5.99998 16.6944 5.8722 16.95 5.61665C17.2056 5.36109 17.3333 5.04442 17.3333 4.66665C17.3333 4.28887 17.2056 3.9722 16.95 3.71665C16.6944 3.46109 16.3778 3.33331 16 3.33331C15.6222 3.33331 15.3056 3.46109 15.05 3.71665C14.7944 3.9722 14.6667 4.28887 14.6667 4.66665C14.6667 5.04442 14.7944 5.36109 15.05 5.61665C15.3056 5.8722 15.6222 5.99998 16 5.99998Z"/>
</svg>
